<?xml version="1.0" encoding="iso-8859-1"?>
<!-- Generator: Adobe Illustrator 19.0.0, SVG Export Plug-In . SVG Version: 6.00 Build 0)  -->
<svg version="1.1" id="Layer_1" xmlns="http://www.w3.org/2000/svg" xmlns:xlink="http://www.w3.org/1999/xlink" x="0px" y="0px"
	 viewBox="0 0 512 512" style="enable-background:new 0 0 512 512;" xml:space="preserve">
<g>
	<g>
		<path d="M503.467,236.343h-8.841c-3.132-38.161-35.132-68.267-74.086-68.267h-70.673h-5.385H167.518h-5.385H91.46
			c-38.955,0-70.955,30.106-74.086,68.267H8.533c-4.719,0-8.533,3.823-8.533,8.533s3.814,8.533,8.533,8.533h8.533v16.119
			c0,21.914,9.591,42.598,26.308,56.764c13.551,11.486,30.566,17.63,48.043,17.63c4.07,0,8.183-0.333,12.271-1.015l75.563-12.587
			c34.586-5.769,59.682-35.396,59.682-70.451v-20.369c0-5.879-0.794-11.563-2.133-17.033c12.39-4.181,26.01-4.181,38.4,0
			c-1.34,5.47-2.133,11.153-2.133,17.033v20.369c0,35.055,25.097,64.683,59.682,70.451l75.563,12.587
			c4.087,0.683,8.201,1.015,12.271,1.015c17.476,0,34.492-6.153,48.043-17.63c16.717-14.165,26.308-34.85,26.308-56.764V253.41
			h8.533c4.719,0,8.533-3.823,8.533-8.533S508.186,236.343,503.467,236.343z M91.46,219.277c-12.791,0-23.194,10.402-23.194,23.194
			c0,4.71-3.814,8.533-8.533,8.533s-8.533-3.823-8.533-8.533c0-22.204,18.057-40.26,40.26-40.26c4.719,0,8.533,3.823,8.533,8.533
			S96.179,219.277,91.46,219.277z M281.216,206.468c-16.247-5.606-34.185-5.606-50.441,0c-4.275-8.166-10.086-15.394-17.041-21.325
			h84.531C291.311,191.074,285.5,198.302,281.216,206.468z"/>
	</g>
</g>
<g>
</g>
<g>
</g>
<g>
</g>
<g>
</g>
<g>
</g>
<g>
</g>
<g>
</g>
<g>
</g>
<g>
</g>
<g>
</g>
<g>
</g>
<g>
</g>
<g>
</g>
<g>
</g>
<g>
</g>
</svg>
